<svg aria-hidden="true" style="position: absolute; width: 0; height: 0; overflow: hidden;" version="1.1" xmlns="http://www.w3.org/2000/svg" xmlns:xlink="http://www.w3.org/1999/xlink">
<defs>
<symbol id="iconMAGNIFYING-GLASS" viewBox="0 0 32 32">
<title>MAGNIFYING-GLASS</title>
<path  d="M31.101 26.862c0.541 0.543 0.876 1.292 0.876 2.119 0 1.657-1.343 3-3 3-0.83 0-1.581-0.337-2.124-0.881l-0-0-8.769-8.78c-1.753 1.056-3.87 1.68-6.132 1.68-6.645 0-12.032-5.387-12.032-12.032s5.387-12.032 12.032-12.032c6.645 0 12.032 5.387 12.032 12.032 0 2.255-0.62 4.365-1.7 6.169l0.030-0.055 8.788 8.78zM12.001 3.016c-4.963 0-8.987 4.024-8.987 8.987s4.024 8.987 8.987 8.987c4.963 0 8.987-4.024 8.987-8.987v0c-0.003-4.962-4.025-8.984-8.987-8.987h-0z"></path>
</symbol>
<symbol id="iconSHOPPING-CART" viewBox="0 0 40 32">
<title>SHOPPING-CART</title>
<path  d="M40.003 7.070v0l-5.656 12.544c-0.282 0.626-0.884 1.063-1.592 1.104l-0.005 0-16.238 1.083 0.935 2.684h17.698c2.078 0 3.763 1.685 3.763 3.763s-1.685 3.763-3.763 3.763c-2.078 0-3.762-1.683-3.763-3.761v-0h-17.561c-0.001 2.077-1.686 3.761-3.763 3.761s-3.763-1.685-3.763-3.763 1.685-3.763 3.763-3.763h3.398l-7.253-20.697h-4.31c-1.039 0-1.882-0.842-1.882-1.882s0.842-1.882 1.882-1.882h5.656c0.816 0.006 1.51 0.525 1.775 1.25l0.004 0.013 1.095 3.131h27.847c0.003 0 0.006-0 0.009-0 1.040 0 1.883 0.842 1.884 1.881v0c-0.006 0.278-0.064 0.542-0.165 0.783l0.005-0.014zM11.745 8.181l3.467 9.937 16.17-1.079 3.991-8.858h-23.628z"></path>
</symbol>
<symbol id="iconfacebook" viewBox="0 0 15 32">
<title>facebook</title>
<path d="M14.995 0.013v5.148s-3.795-0.375-4.748 1.075c-0.52 0.8-0.211 3.124-0.257 4.798h5.034c-0.425 1.949-0.73 3.274-1.043 4.973h-4.019v15.994h-6.975v-15.932h-2.968v-5.036h2.935c0.15-3.686 0.206-7.335 2.036-9.184 2.057-2.087 4.021-1.837 10.005-1.837z"></path>
</symbol>
<symbol id="iconinstagram" viewBox="0 0 32 32">
<title>instagram</title>
<path d="M27.976 32.001h-23.991c-2.208 0-3.999-1.79-3.999-3.999v0-23.991c0-2.208 1.79-3.999 3.999-3.999v0h23.991c2.208 0 3.999 1.79 3.999 3.999v0 23.991c0 2.208-1.79 3.999-3.999 3.999v0zM15.981 9.809c-0 0-0.001 0-0.001 0-2.479 0-4.617 1.457-5.606 3.561l-0.016 0.038c-0.008 0.024-0.017 0.045-0.028 0.064l0.001-0.001c-0.038 0.082-0.092 0.219-0.142 0.357l-0.018 0.056c-0.024 0.062-0.050 0.125-0.071 0.187-0.046 0.137-0.084 0.287-0.125 0.425-0.018 0.062-0.037 0.137-0.052 0.2-0.033 0.15-0.055 0.3-0.076 0.462-0.009 0.062-0.021 0.125-0.029 0.187-0.023 0.198-0.036 0.428-0.036 0.661v0.001c0 3.423 2.775 6.198 6.198 6.198s6.198-2.775 6.198-6.198v0c-0.001-0.234-0.014-0.464-0.039-0.691l0.003 0.029c-0.008-0.062-0.020-0.125-0.029-0.187-0.023-0.187-0.050-0.344-0.083-0.499l0.007 0.037c-0.026-0.108-0.044-0.175-0.063-0.242l0.010 0.042c-0.035-0.137-0.072-0.287-0.125-0.425-0.021-0.062-0.047-0.125-0.071-0.187-0.068-0.194-0.122-0.33-0.18-0.464l0.020 0.052c-0.011-0.018-0.020-0.039-0.027-0.060l-0.001-0.002c-1.004-2.141-3.141-3.597-5.618-3.599h-0zM28.376 5.211c0-0.001 0-0.002 0-0.003 0-0.882-0.715-1.597-1.597-1.597-0.001 0-0.002 0-0.003 0h-3.199c-0.001 0-0.002 0-0.003 0-0.882 0-1.597 0.715-1.597 1.597 0 0.001 0 0.002 0 0.003v-0 3.199c0 0.001 0 0.002 0 0.002 0 0.882 0.715 1.597 1.597 1.597 0.001 0 0.002 0 0.003 0h3.199c0.001 0 0.002 0 0.003 0 0.882 0 1.597-0.715 1.597-1.597 0-0.001 0-0.002 0-0.003v0-3.199zM28.376 13.408h-2.949c0.222 0.778 0.35 1.671 0.35 2.595 0 5.41-4.386 9.796-9.796 9.796s-9.796-4.386-9.796-9.796c0-0.923 0.128-1.817 0.367-2.664l-0.017 0.069h-2.949v13.395c0 0.001 0 0.002 0 0.003 0 0.882 0.715 1.597 1.597 1.597 0.001 0 0.002 0 0.003 0h21.592c0.001 0 0.002 0 0.003 0 0.882 0 1.597-0.715 1.597-1.597 0-0.001 0-0.002 0-0.003v0-13.395z"></path>
</symbol>
<symbol id="iconpinterest" viewBox="0 0 24 32">
<title>pinterest</title>
<path d="M10.173 20.78c-0.261 1.050-0.525 2.137-0.797 3.199-0.268 1.217-0.576 2.25-0.951 3.25l0.054-0.164c-0.652 1.69-1.514 3.149-2.575 4.438l0.022-0.027c-0.718 0.825-0.566 0.5-0.782 0.45-0.165-0.038-0.179-0.2-0.211-0.425-0.055-0.61-0.086-1.32-0.086-2.036 0-0.752 0.034-1.497 0.102-2.232l-0.007 0.094c0.115-1.599 0.377-3.082 0.774-4.508l-0.038 0.16c0.605-2.574 1.182-5.098 1.793-7.697 0.063-0.162 0.104-0.35 0.112-0.546l0-0.004c-0.257-0.619-0.446-1.337-0.533-2.087l-0.003-0.037c-0.026-0.223-0.041-0.481-0.041-0.742 0-0.602 0.078-1.186 0.225-1.742l-0.011 0.047c0.268-1.324 1.156-2.396 2.341-2.914l0.026-0.010c0.263-0.091 0.565-0.144 0.88-0.144 0.471 0 0.915 0.118 1.302 0.327l-0.015-0.007c0.556 0.337 0.953 0.887 1.081 1.535l0.002 0.015c0.052 0.286 0.082 0.615 0.082 0.95 0 0.502-0.066 0.988-0.19 1.45l0.009-0.039c-0.334 1.524-0.772 2.674-1.171 4.136-0.181 0.472-0.286 1.018-0.286 1.589 0 0.237 0.018 0.47 0.053 0.698l-0.003-0.025c0.148 0.664 0.529 1.221 1.050 1.594l0.008 0.005c0.503 0.364 1.133 0.582 1.814 0.582 0.076 0 0.152-0.003 0.227-0.008l-0.010 0.001c1.384-0.127 2.573-0.868 3.303-1.946l0.010-0.016c1.169-1.641 1.928-3.648 2.091-5.822l0.002-0.039c0.068-0.527 0.107-1.138 0.107-1.757 0-0.265-0.007-0.529-0.021-0.791l0.002 0.037c-0.059-1.48-0.579-2.827-1.42-3.914l0.012 0.016c-0.803-0.985-1.87-1.728-3.092-2.124l-0.047-0.013c-0.886-0.274-1.904-0.432-2.959-0.432-0.609 0-1.205 0.053-1.785 0.153l0.062-0.009c-2.694 0.411-4.928 2.074-6.12 4.365l-0.022 0.046c-0.659 1.208-1.046 2.646-1.046 4.175 0 0.030 0 0.060 0 0.091l-0-0.005c-0.002 0.052-0.003 0.113-0.003 0.174 0 1.094 0.317 2.114 0.863 2.973l-0.013-0.023c0.166 0.25 0.41 0.462 0.572 0.75 0.040 0.156 0.064 0.334 0.064 0.519 0 0.338-0.078 0.659-0.218 0.943l0.006-0.013c-0.137 0.537-0.152 1.262-0.772 1.275-0.302-0.034-0.573-0.141-0.803-0.304l0.005 0.004c-1.636-1.003-2.773-2.684-3.023-4.642l-0.003-0.032c-0.118-0.607-0.185-1.305-0.185-2.018s0.067-1.411 0.196-2.087l-0.011 0.069c0.684-3.298 2.698-6.029 5.444-7.655l0.054-0.029c1.404-0.838 3.053-1.429 4.815-1.667l0.067-0.007c0.59-0.089 1.284-0.147 1.988-0.162l0.018-0c0.171-0.009 0.372-0.014 0.573-0.014 1.748 0 3.41 0.373 4.909 1.044l-0.076-0.030c1.462 0.656 2.701 1.563 3.716 2.678l0.008 0.009c1.044 1.139 1.835 2.527 2.274 4.064l0.018 0.072c0.292 0.85 0.473 1.83 0.5 2.848l0 0.013c-0.047 1.077-0.185 2.093-0.407 3.077l0.022-0.116c-0.421 3.339-2.202 6.194-4.761 8.036l-0.035 0.024c-1.324 0.865-2.946 1.38-4.688 1.38-0.109 0-0.218-0.002-0.326-0.006l0.016 0c-0.918-0.057-1.763-0.319-2.507-0.74l0.029 0.015c-0.691-0.365-1.25-0.897-1.638-1.543l-0.010-0.019z"></path>
</symbol>
<symbol id="icontwitter" viewBox="0 0 39 32">
<title>twitter</title>
<path d="M26.812 0.022c0.121-0.006 0.262-0.010 0.404-0.010 2.35 0 4.473 0.977 5.983 2.547l0.003 0.003c1.552-0.258 2.944-0.747 4.212-1.436l-0.070 0.035 1.005-0.554c-0.51 1.537-1.417 2.827-2.602 3.79l-0.015 0.012c-0.257 0.244-0.549 0.454-0.867 0.621l-0.021 0.010v0.015c1.693-0.182 3.242-0.617 4.67-1.27l-0.094 0.038v0.015c-0.765 1.212-1.673 2.248-2.721 3.123l-0.021 0.017c-0.42 0.339-0.842 0.677-1.262 1 0.012 0.28 0.019 0.609 0.019 0.939 0 1.508-0.143 2.982-0.416 4.409l0.023-0.146c-2.019 9.066-7.37 15.223-15.837 17.87-2.009 0.597-4.318 0.941-6.707 0.941-1.675 0-3.31-0.169-4.889-0.491l0.157 0.027c-1.846-0.445-3.43-0.978-4.951-1.631l0.2 0.076c-0.904-0.398-1.655-0.794-2.376-1.235l0.087 0.050c-0.237-0.139-0.473-0.292-0.71-0.431 0.539 0.073 1.163 0.114 1.796 0.114 0.277 0 0.551-0.008 0.824-0.024l-0.038 0.002c0.796-0.123 1.575-0.092 2.309-0.246 1.826-0.36 3.45-0.968 4.934-1.798l-0.084 0.043c0.838-0.395 1.559-0.873 2.2-1.44l-0.010 0.009c-0.864-0.003-1.691-0.16-2.454-0.447l0.049 0.016c-2.432-0.84-4.308-2.73-5.112-5.114l-0.017-0.057c0.433 0.083 0.931 0.131 1.44 0.131 0.773 0 1.519-0.11 2.226-0.314l-0.056 0.014c-1.005-0.139-1.902-0.516-2.659-1.073l0.016 0.011c-2.296-1.372-3.81-3.845-3.81-6.671 0-0.084 0.001-0.168 0.004-0.252l-0 0.012c0.277 0.123 0.553 0.262 0.828 0.385 0.486 0.204 1.055 0.37 1.646 0.471l0.047 0.007c0.218 0.079 0.47 0.124 0.732 0.124 0.132 0 0.261-0.011 0.387-0.034l-0.013 0.002h-0.040c-0.406-0.462-1.070-0.785-1.479-1.293-1.264-1.443-2.036-3.346-2.036-5.429 0-0.673 0.081-1.327 0.232-1.954l-0.012 0.056c0.222-0.803 0.519-1.503 0.892-2.154l-0.024 0.045c0.014 0 0.026 0.015 0.040 0.015 0.216 0.319 0.457 0.597 0.726 0.843l0.004 0.003c0.716 0.862 1.505 1.62 2.371 2.283l0.035 0.026c2.752 2.254 6.078 3.916 9.721 4.741l0.159 0.030c1.084 0.287 2.333 0.46 3.619 0.477l0.011 0c-0.142-0.548-0.224-1.178-0.224-1.827 0-0.703 0.096-1.383 0.275-2.028l-0.013 0.053c0.612-2.453 2.302-4.42 4.525-5.398l0.051-0.020c0.512-0.225 1.112-0.417 1.736-0.544l0.058-0.010c0.326-0.046 0.656-0.077 0.984-0.123z"></path>
</symbol>
</defs>
</svg>
